<svg version="1.1" id="Layer_1" xmlns="http://www.w3.org/2000/svg" xmlns:xlink="http://www.w3.org/1999/xlink" x="0px" y="0px"
	 width="100%" viewBox="0 0 1000 1000" enable-background="new 0 0 1000 1000" xml:space="preserve">
<path fill="#FEFEFE" opacity="1.000000" stroke="none" 
	d="
M440.000000,1001.000000 
	C293.333344,1001.000000 147.166672,1001.000000 1.000000,1001.000000 
	C1.000000,667.666687 1.000000,334.333344 1.000000,1.000000 
	C334.333344,1.000000 667.666687,1.000000 1001.000000,1.000000 
	C1001.000000,334.333344 1001.000000,667.666687 1001.000000,1001.000000 
	C814.166687,1001.000000 627.333313,1001.000000 440.000000,1001.000000 
M273.794037,654.888184 
	C274.204346,655.085205 274.614655,655.282227 275.568726,655.958252 
	C291.677643,665.509338 308.759735,672.666687 327.481812,677.173889 
	C327.993317,677.274414 328.504822,677.375000 329.631866,677.822449 
	C330.099091,677.847107 330.566345,677.871826 331.702637,678.243958 
	C338.471222,679.380127 345.239777,680.516235 352.787872,681.876587 
	C353.865143,681.898071 354.942413,681.919556 356.749298,682.198853 
	C359.170227,682.307739 361.591156,682.416626 364.652252,682.748169 
	C365.097931,682.708679 365.543640,682.669189 366.907867,682.828003 
	C372.933838,682.539307 378.959808,682.250549 385.657471,682.085388 
	C386.103546,682.014160 386.549591,681.942993 387.868713,681.969727 
	C444.340759,676.882080 491.924469,642.638123 508.384888,613.813599 
	C480.156952,642.714478 446.015717,659.421448 405.219269,663.958984 
	C404.148773,664.079407 403.078308,664.199829 401.106934,664.193909 
	C397.408020,664.470886 393.709137,664.747803 389.185089,664.856262 
	C387.787292,664.912292 386.389526,664.968384 384.229095,664.792542 
	C380.483307,664.631042 376.737549,664.469482 372.158325,664.092957 
	C364.474060,662.862305 356.718109,661.965759 349.119507,660.335815 
	C329.398773,656.105591 311.704407,647.237976 294.786957,635.357666 
	C290.505676,631.945618 286.224396,628.533508 281.608368,624.541382 
	C278.626038,621.634399 275.412598,618.926331 272.706299,615.781738 
	C265.648346,607.581055 258.737122,599.250488 251.913162,590.853210 
	C246.858871,584.633606 241.466125,578.918091 232.804276,578.636475 
	C224.556793,578.368347 216.293762,578.578735 206.745560,578.578735 
	C209.811264,584.287781 211.940750,588.556396 214.338974,592.668213 
	C226.201736,613.007019 240.721542,631.053284 260.229095,645.627014 
	C264.647461,648.571899 269.065826,651.516846 273.601166,654.321594 
	C273.601166,654.321594 273.556335,654.498596 273.794037,654.888184 
M746.644226,509.620270 
	C747.093140,509.530701 747.542114,509.441132 748.695862,509.601898 
	C750.152039,509.485352 751.608154,509.368774 753.848022,509.498047 
	C759.433533,509.498047 765.019043,509.498047 770.965942,509.498047 
	C770.965942,514.203247 770.966003,518.005371 770.966003,521.807434 
	C770.966003,534.981445 769.045471,537.682739 756.265869,541.786194 
	C753.434326,542.695374 750.448120,543.326172 747.488220,543.599487 
	C726.742859,545.515503 706.605835,537.578430 700.676880,514.723389 
	C699.040710,508.416565 698.646179,501.482635 699.201416,494.965881 
	C701.445984,468.618408 724.281921,451.824249 750.285339,456.668457 
	C759.339966,458.355286 767.105652,462.499207 772.837036,467.243958 
	C777.306030,463.278320 781.348267,459.691345 785.624634,455.896637 
	C766.336670,438.608826 744.318176,434.249023 720.074219,441.886993 
	C696.197632,449.409271 680.920898,471.240143 680.143982,497.823822 
	C679.556824,517.913879 684.693542,535.871826 700.982788,548.998535 
	C722.748596,566.538574 759.822449,565.860840 781.417114,548.081787 
	C786.358521,544.013550 789.030823,539.783813 788.635437,532.917175 
	C787.956787,521.132446 788.455750,509.280304 788.439148,497.456451 
	C788.437134,496.019470 788.303772,494.582672 788.223938,493.000580 
	C784.243164,493.000580 780.621582,493.000580 776.105286,492.824402 
	C773.070190,492.886536 770.035095,492.948669 766.263000,492.824921 
	C765.508423,492.863159 764.753784,492.901428 763.106384,492.753357 
	C760.071045,492.817444 757.035645,492.881531 753.095337,492.772736 
	C749.429871,492.836914 745.764404,492.901093 741.831909,492.760193 
	C741.521362,492.828369 741.210754,492.896576 740.269104,492.785248 
	C739.845581,492.861664 739.421997,492.938080 738.479553,493.037231 
	C738.400085,493.346649 738.320557,493.656036 738.086243,494.892426 
	C738.086243,499.716156 738.086243,504.539856 738.086243,509.800110 
	C740.497925,509.580688 742.236267,509.422546 744.628052,509.540253 
	C745.088135,509.468262 745.548218,509.396301 746.644226,509.620270 
M24.715109,864.200439 
	C25.149620,864.186096 25.584131,864.171692 26.498573,864.600281 
	C32.474194,863.290222 33.414883,860.589783 30.925642,854.008972 
	C34.559994,851.536743 33.465458,848.280884 31.777164,845.541748 
	C30.317202,843.173035 28.877552,841.403687 31.899265,839.313965 
	C32.376751,838.983826 32.961502,837.935364 32.792633,837.673889 
	C29.951313,833.274841 31.456905,829.175964 32.626381,824.559753 
	C33.681080,820.396667 31.778223,815.533081 32.594479,811.247925 
	C33.513401,806.423584 31.572941,804.648743 27.752558,802.973145 
	C25.919088,802.168945 24.591871,800.210571 23.744268,798.968445 
	C25.823853,799.622070 27.903437,800.275635 30.389112,801.440430 
	C33.501785,799.853577 33.743057,797.433838 30.863443,795.622253 
	C29.580891,794.815430 28.087086,794.344360 26.689157,793.720947 
	C32.885429,793.493408 33.265736,789.639648 33.006310,785.047791 
	C32.776669,780.983337 32.975849,776.896423 32.890110,772.821472 
	C32.792019,768.159241 27.614080,763.648865 22.733688,764.055359 
	C19.595329,764.316833 16.593853,764.975830 17.089676,770.045837 
	C17.105757,771.291748 17.121838,772.537598 17.025322,774.430542 
	C16.985289,775.825928 16.945257,777.221313 16.866564,779.531799 
	C17.000759,781.327454 17.134954,783.123047 16.683241,785.305969 
	C16.804989,786.540955 16.926737,787.776001 16.932562,789.744385 
	C17.037407,790.476135 17.142252,791.207825 16.722900,792.183655 
	C16.826488,792.791870 16.930077,793.400024 16.897871,794.934998 
	C17.014439,800.597778 17.131006,806.260498 16.731771,812.192993 
	C16.860744,812.805420 16.989717,813.417847 17.053782,814.727600 
	C18.097874,816.709534 19.141968,818.691406 19.833561,821.277710 
	C18.962938,822.539917 18.092316,823.802185 17.037769,825.811951 
	C16.735676,830.249634 20.936010,830.598816 22.281960,832.810791 
	C20.981358,832.916687 19.509047,832.691284 18.440619,833.245056 
	C17.730778,833.612976 17.598358,835.094849 17.032770,836.815430 
	C16.540428,841.405212 21.335085,841.135193 22.306807,843.749023 
	C20.892286,843.839355 19.391146,843.680664 18.101334,844.129395 
	C17.495003,844.340332 17.295246,845.719910 16.872595,847.477905 
	C16.954149,849.250549 17.035704,851.023193 17.070244,853.692261 
	C17.132095,854.586121 17.193947,855.479919 17.458385,857.100037 
	C17.438091,860.159058 19.072767,862.200867 22.381208,863.872742 
	C22.951290,863.900208 23.521372,863.927673 24.715109,864.200439 
M15.031384,886.850159 
	C16.343128,887.623718 17.654871,888.397217 19.027897,889.733826 
	C19.358418,890.157349 19.688940,890.580811 19.925512,891.833801 
	C19.982723,893.498718 20.039934,895.163574 20.062067,897.732361 
	C20.094595,899.237915 20.127121,900.743469 20.038225,903.028931 
	C20.157560,904.328369 20.276896,905.627747 19.748507,907.245483 
	C19.737640,909.310425 14.186488,908.356384 17.034065,912.679260 
	C17.061260,913.112732 17.088455,913.546265 16.509146,914.260864 
	C16.339264,915.507263 16.169380,916.753601 15.949227,918.827332 
	C16.840916,921.191284 17.732603,923.555237 18.624315,925.919250 
	C21.293377,924.562012 23.962439,923.204773 26.301342,922.015503 
	C26.924351,922.956909 27.913013,924.450867 29.686291,925.940308 
	C33.800190,925.154968 32.929108,921.958252 32.820129,919.243042 
	C32.761341,917.778259 32.033604,916.323914 32.064423,914.874573 
	C32.302414,903.681824 32.665733,892.491882 32.942726,881.299805 
	C32.966080,880.356262 32.642868,879.404175 32.410950,878.048584 
	C28.535053,878.048584 24.812164,877.958618 21.106005,878.166626 
	C20.661312,878.191589 20.307386,879.833862 19.907972,881.484802 
	C19.946882,881.988525 19.985792,882.492249 19.231522,883.006165 
	C14.540998,883.163330 14.367449,883.295593 15.031384,886.850159 
M273.950928,470.839874 
	C275.952179,470.751282 277.953400,470.662689 280.758789,470.704681 
	C281.831024,470.589203 282.903290,470.473694 284.893524,470.592926 
	C319.864563,469.908752 354.834839,469.180115 389.807800,468.614990 
	C393.004395,468.563324 394.914795,467.577881 396.701172,464.919220 
	C402.363434,456.492157 408.329651,448.269287 414.180359,439.968933 
	C416.216309,437.080505 418.258240,434.196259 420.644226,430.819275 
	C418.023407,430.819275 416.368652,430.782257 414.715881,430.824615 
	C357.770844,432.283051 300.826447,433.767303 243.880707,435.198395 
	C232.561707,435.482880 221.234360,435.454803 209.917389,435.791260 
	C203.990356,435.967499 198.835876,438.465881 196.983643,444.303406 
	C194.085449,453.437378 192.031845,462.839355 189.432953,472.850098 
	C213.483688,472.183350 236.741455,471.538605 260.661987,471.049133 
	C261.108276,470.985382 261.554596,470.921661 262.863525,471.029907 
	C264.907410,470.944855 266.951324,470.859772 269.674072,470.907349 
	C270.819092,470.830414 271.964111,470.753448 273.950928,470.839874 
M583.809143,515.438049 
	C583.524231,514.964783 583.239319,514.491455 582.971130,513.271667 
	C577.594543,495.071594 582.540283,474.565735 596.543030,463.646271 
	C603.482422,458.234863 611.461121,455.647736 620.077393,455.015533 
	C633.256653,454.048462 644.955566,457.881653 655.087830,467.153473 
	C659.258606,462.788757 663.129761,458.737549 667.158875,454.521088 
	C653.369995,441.117828 636.853699,435.568146 617.958252,437.157867 
	C596.028625,439.002838 578.598816,448.626221 568.907166,468.938965 
	C558.828918,490.061768 559.192993,511.348755 571.157532,532.665466 
	C573.606079,535.810791 575.781860,539.221985 578.546509,542.059265 
	C600.063904,564.141541 641.555664,565.377869 665.443665,544.826050 
	C666.544067,543.879333 668.113831,543.478149 669.168884,542.966492 
	C663.804443,537.438171 659.763855,533.274170 655.728455,529.115540 
	C634.061462,548.899414 597.883057,544.602417 585.302551,519.175049 
	C584.803833,518.116028 584.305115,517.056946 583.809143,515.438049 
M281.490692,482.288910 
	C281.490692,482.288910 281.064636,482.487701 280.204834,482.328339 
	C275.471893,482.524414 270.738953,482.720490 265.255585,482.668060 
	C259.837341,482.834259 254.419113,483.000427 248.073273,483.023529 
	C232.453735,483.311768 216.830872,483.483337 201.215881,483.930481 
	C191.316910,484.213959 187.611282,488.371613 188.040314,497.922302 
	C188.241409,502.398865 188.412842,506.878113 188.501572,511.358063 
	C188.652298,518.969543 191.484375,522.042725 199.124207,521.939026 
	C210.082565,521.790283 221.036346,521.304993 232.818665,521.118774 
	C234.213959,521.046631 235.609268,520.974487 237.929947,521.058777 
	C276.707458,520.261658 315.484253,519.422668 354.263794,518.740601 
	C357.649597,518.681091 359.686493,517.521790 361.565369,514.770508 
	C368.695618,504.329437 376.068207,494.054016 383.324829,483.698822 
	C384.024323,482.700623 384.548431,481.579498 384.946411,480.880127 
	C374.594666,480.880127 364.448303,480.728912 354.307922,480.910309 
	C330.180450,481.341980 306.055786,481.930939 281.490692,482.288910 
M427.412903,327.146851 
	C382.821014,312.739990 339.028076,315.711975 296.286560,334.076874 
	C253.081985,352.640686 224.266083,385.742310 203.422134,427.754120 
	C210.083237,427.754120 215.889633,427.378876 221.630951,427.830627 
	C234.406479,428.835846 242.507294,423.815979 249.424286,412.490112 
	C298.259247,332.528015 404.258118,314.823456 473.057159,358.956024 
	C484.125153,366.055878 494.437378,374.333862 506.110657,382.801025 
	C485.189117,355.863739 459.168793,338.161316 427.412903,327.146851 
M454.394562,447.871613 
	C445.128357,454.678192 438.689545,463.548920 434.756439,474.344513 
	C431.643982,482.887512 431.126984,491.638336 430.727997,500.690094 
	C429.725464,523.435791 442.504700,545.759216 463.661804,554.052673 
	C471.277588,557.038086 479.687775,558.711914 487.868286,559.396545 
	C506.383636,560.945923 522.714172,555.270386 536.007019,541.920105 
	C537.226440,540.695435 538.746826,538.979187 538.766541,537.473328 
	C538.969238,522.014160 538.890869,506.551270 538.890869,490.588287 
	C523.355957,490.588287 508.228424,490.581604 493.100861,490.598877 
	C491.639313,490.600555 490.177948,490.750732 488.601868,490.838318 
	C488.601868,496.512726 488.601868,501.878723 488.601868,507.602142 
	C494.276062,507.602142 499.584473,507.602142 504.892914,507.602142 
	C510.160797,507.602142 515.428711,507.602142 521.125854,507.602142 
	C521.125854,514.700378 520.957214,521.171753 521.199463,527.627686 
	C521.314697,530.699585 520.117798,532.427429 517.703918,534.115479 
	C503.300842,544.187561 480.866058,544.399231 466.175293,534.751404 
	C449.748749,523.963684 443.916931,498.837067 453.524902,477.886108 
	C460.952942,461.688660 474.289764,454.200836 491.836914,453.899567 
	C504.206848,453.687195 514.891907,458.208344 523.762329,465.791595 
	C527.945129,461.895935 531.924377,458.189880 535.885071,454.501129 
	C517.322266,433.420380 480.515778,430.316437 454.394562,447.871613 
M341.522552,543.060547 
	C343.757141,539.883301 345.991730,536.706055 348.719177,532.828064 
	C295.842651,533.931824 244.106842,535.011780 191.781723,536.104065 
	C194.574570,545.136292 197.121994,553.718994 199.893036,562.228882 
	C202.153900,569.172119 204.601395,570.995056 211.922058,570.867798 
	C246.887177,570.260315 281.850220,569.533752 316.814331,568.869019 
	C321.092102,568.787659 324.453583,567.259521 326.956604,563.604736 
	C331.563599,556.877869 336.376251,550.291931 341.522552,543.060547 
M270.140594,578.301453 
	C268.439636,578.814331 266.738678,579.327148 264.738892,579.930115 
	C265.487640,581.245605 265.914642,582.124878 266.457458,582.925659 
	C268.230804,585.541748 269.934845,588.215332 271.862732,590.714661 
	C293.574005,618.861572 322.812286,634.428528 357.183289,640.855103 
	C381.301575,645.364624 405.238373,644.787903 428.272491,635.040039 
	C432.256287,633.354187 435.982086,631.058594 439.827057,629.044556 
	C429.458832,629.157776 419.589630,630.373169 409.714111,631.535156 
	C384.816864,634.464294 360.537323,632.659241 337.437744,621.983459 
	C320.523071,614.166077 306.397400,602.746948 294.428772,588.565002 
	C288.291870,581.293274 281.018585,576.633911 270.140594,578.301453 
M398.341003,370.885803 
	C411.583252,372.294373 424.825531,373.702942 438.067780,375.111511 
	C403.924927,354.905182 368.354401,356.488464 332.546326,368.514282 
	C303.164856,378.381775 279.523590,396.058838 263.104034,423.099243 
	C275.232544,427.515472 283.576660,425.423187 292.198547,415.279205 
	C319.834656,382.764374 354.843933,367.968079 398.341003,370.885803 
M29.079615,938.698547 
	C31.347055,933.563171 31.347055,933.563171 27.957010,932.615295 
	C27.704617,934.044800 27.452423,935.473206 27.200230,936.901550 
	C26.920547,936.867798 26.640865,936.834045 26.361183,936.800293 
	C26.056978,934.943909 25.752773,933.087463 25.441435,931.187500 
	C19.035505,932.849670 18.794142,933.779541 22.554180,941.751831 
	C20.074730,944.524109 17.484953,947.419800 14.470115,950.790710 
	C18.404396,950.966248 21.428610,951.101196 24.452824,951.236084 
	C18.951525,954.035217 18.897842,957.784912 21.631792,962.094788 
	C19.041264,963.294678 16.822962,964.322144 14.604660,965.349609 
	C14.767985,965.777344 14.931311,966.205078 15.094636,966.632812 
	C16.658319,966.905701 18.222002,967.178589 18.759468,967.272400 
	C20.783503,970.235657 22.294706,972.448181 24.001226,974.946594 
	C21.849878,975.823730 19.721283,976.505737 17.798113,977.561829 
	C16.957314,978.023438 16.044765,979.267944 16.075510,980.124268 
	C16.101753,980.855286 17.312540,981.861145 18.203899,982.188538 
	C21.995924,983.581238 25.864000,984.766968 30.481213,986.283386 
	C29.911457,984.226868 29.936216,982.843323 29.256802,982.139832 
	C27.206608,980.017029 26.795485,978.403320 29.608919,976.558960 
	C30.246700,976.140869 30.363943,974.495239 30.262201,973.459656 
	C29.876015,969.528870 27.860296,965.050903 29.125736,961.825989 
	C31.172363,956.610229 29.580624,954.018250 24.879150,951.703735 
	C30.534599,950.436584 30.534599,950.436584 30.620510,944.492554 
	C28.747469,943.399780 26.874426,942.307007 24.778095,941.083984 
	C26.270102,940.360657 27.429564,939.798584 29.079615,938.698547 
M33.761894,873.519409 
	C32.860649,872.805786 31.985983,871.519165 31.053637,871.475830 
	C26.573317,871.268005 22.076464,871.348267 17.587732,871.438599 
	C16.484625,871.460815 15.390001,871.904724 14.291476,872.154785 
	C14.333682,872.732727 14.375888,873.310669 14.418094,873.888611 
	C20.592194,873.888611 26.766293,873.888611 33.761894,873.519409 
z"/>
<path fill="#31328C" opacity="1.000000" stroke="none" 
	d="
M268.995209,470.774689 
	C266.951324,470.859772 264.907410,470.944855 262.388184,470.659180 
	C261.588531,469.993866 261.264221,469.699249 260.939880,469.404663 
	C260.626343,469.901062 260.312775,470.397461 259.999207,470.893860 
	C236.741455,471.538605 213.483688,472.183350 189.432953,472.850098 
	C192.031845,462.839355 194.085449,453.437378 196.983643,444.303406 
	C198.835876,438.465881 203.990356,435.967499 209.917389,435.791260 
	C221.234360,435.454803 232.561707,435.482880 243.880707,435.198395 
	C300.826447,433.767303 357.770844,432.283051 414.715881,430.824615 
	C416.368652,430.782257 418.023407,430.819275 420.644226,430.819275 
	C418.258240,434.196259 416.216309,437.080505 414.180359,439.968933 
	C408.329651,448.269287 402.363434,456.492157 396.701172,464.919220 
	C394.914795,467.577881 393.004395,468.563324 389.807800,468.614990 
	C354.834839,469.180115 319.864563,469.908752 284.442139,470.021118 
	C283.490631,465.947205 285.000397,464.669342 288.489594,464.952789 
	C292.360077,465.267212 294.286285,463.229889 294.814636,460.311493 
	C291.272339,459.828613 288.492767,459.449677 285.713135,459.070740 
	C286.073212,456.694824 286.433319,454.318909 286.856873,451.524078 
	C283.295624,449.032928 283.196869,449.160797 280.301086,461.523315 
	C272.694000,460.983093 269.198639,463.843292 268.995209,470.774689 
M305.698242,448.118988 
	C298.431366,447.839050 298.431366,447.839050 294.995605,440.251007 
	C294.494171,442.541718 293.992767,444.832428 293.275696,448.108246 
	C291.224457,445.939880 289.669525,443.927460 287.728333,442.408752 
	C286.835480,441.710205 285.185638,441.979248 283.879059,441.809509 
	C284.137421,442.928345 284.018402,444.457092 284.715759,445.099152 
	C289.053833,449.093048 293.574860,452.888245 298.445038,457.104095 
	C298.314667,455.454163 298.153198,453.410889 297.981567,451.239105 
	C300.821228,450.838593 305.292969,454.574951 305.698242,448.118988 
z"/>
<path fill="#0573BD" opacity="1.000000" stroke="none" 
	d="
M427.790344,327.268860 
	C459.168793,338.161316 485.189117,355.863739 506.110657,382.801025 
	C494.437378,374.333862 484.125153,366.055878 473.057159,358.956024 
	C404.258118,314.823456 298.259247,332.528015 249.424286,412.490112 
	C242.507294,423.815979 234.406479,428.835846 221.630951,427.830627 
	C215.889633,427.378876 210.083237,427.754120 203.422134,427.754120 
	C224.266083,385.742310 253.081985,352.640686 296.286560,334.076874 
	C339.028076,315.711975 382.821014,312.739990 427.790344,327.268860 
z"/>
<path fill="#0372BD" opacity="1.000000" stroke="none" 
	d="
M231.992081,520.963440 
	C221.036346,521.304993 210.082565,521.790283 199.124207,521.939026 
	C191.484375,522.042725 188.652298,518.969543 188.501572,511.358063 
	C188.412842,506.878113 188.241409,502.398865 188.040314,497.922302 
	C187.611282,488.371613 191.316910,484.213959 201.215881,483.930481 
	C216.830872,483.483337 232.453735,483.311768 248.546814,483.456543 
	C250.585037,487.511383 253.062531,488.679504 256.892700,487.202942 
	C258.665710,486.519501 260.679077,486.459686 262.583496,486.117157 
	C262.847687,486.664612 263.111877,487.212067 263.376068,487.759521 
	C261.356323,489.567108 259.336578,491.374695 257.316833,493.182281 
	C257.470123,493.626099 257.623444,494.069946 257.776764,494.513763 
	C259.543335,494.139832 261.701447,494.280365 263.000336,493.291840 
	C266.393311,490.709656 268.301636,487.323395 266.006012,482.916534 
	C270.738953,482.720490 275.471893,482.524414 280.723175,482.516663 
	C281.241516,482.704956 281.638702,482.735992 281.638702,482.735992 
	C281.638702,482.735992 281.929993,482.456390 281.929993,482.456360 
	C306.055786,481.930939 330.180450,481.341980 354.307922,480.910309 
	C364.448303,480.728912 374.594666,480.880127 384.946411,480.880127 
	C384.548431,481.579498 384.024323,482.700623 383.324829,483.698822 
	C376.068207,494.054016 368.695618,504.329437 361.565369,514.770508 
	C359.686493,517.521790 357.649597,518.681091 354.263794,518.740601 
	C315.484253,519.422668 276.707458,520.261658 237.508362,520.631226 
	C238.723816,516.401123 240.360886,512.598633 242.138962,508.468658 
	C248.286530,509.595093 252.567459,506.649872 250.976669,501.438538 
	C249.259338,502.311951 247.542023,503.187378 245.536469,504.209747 
	C245.041046,500.325439 251.535110,499.055023 247.721481,495.548584 
	C246.383240,494.318146 243.033356,493.803558 241.437790,494.611877 
	C237.303864,496.706024 236.127106,500.601318 237.522217,504.005157 
	C233.635818,504.943604 229.980530,505.826233 225.174805,506.986664 
	C226.392166,507.521576 226.243927,507.442352 226.086823,507.389587 
	C224.395264,506.821198 222.702332,506.256989 221.009766,505.691650 
	C221.655838,507.278320 221.991882,509.107483 223.007156,510.405334 
	C225.852036,514.042114 228.977371,517.459534 231.992081,520.963440 
z"/>
<path fill="#2173B8" opacity="1.000000" stroke="none" 
	d="
M454.682861,447.658966 
	C480.515778,430.316437 517.322266,433.420380 535.885071,454.501129 
	C531.924377,458.189880 527.945129,461.895935 523.762329,465.791595 
	C514.891907,458.208344 504.206848,453.687195 491.836914,453.899567 
	C474.289764,454.200836 460.952942,461.688660 453.524902,477.886108 
	C443.916931,498.837067 449.748749,523.963684 466.175293,534.751404 
	C480.866058,544.399231 503.300842,544.187561 517.703918,534.115479 
	C520.117798,532.427429 521.314697,530.699585 521.199463,527.627686 
	C520.957214,521.171753 521.125854,514.700378 521.125854,507.602142 
	C515.428711,507.602142 510.160797,507.602142 504.892914,507.602142 
	C499.584473,507.602142 494.276062,507.602142 488.601868,507.602142 
	C488.601868,501.878723 488.601868,496.512726 488.601868,490.838318 
	C490.177948,490.750732 491.639313,490.600555 493.100861,490.598877 
	C508.228424,490.581604 523.355957,490.588287 538.890869,490.588287 
	C538.890869,506.551270 538.969238,522.014160 538.766541,537.473328 
	C538.746826,538.979187 537.226440,540.695435 536.007019,541.920105 
	C522.714172,555.270386 506.383636,560.945923 487.868286,559.396545 
	C479.687775,558.711914 471.277588,557.038086 463.661804,554.052673 
	C442.504700,545.759216 429.725464,523.435791 430.727997,500.690094 
	C431.126984,491.638336 431.643982,482.887512 434.756439,474.344513 
	C438.689545,463.548920 445.128357,454.678192 454.682861,447.658966 
z"/>
<path fill="#2072B7" opacity="1.000000" stroke="none" 
	d="
M743.974609,509.264374 
	C742.236267,509.422546 740.497925,509.580688 738.086243,509.800110 
	C738.086243,504.539856 738.086243,499.716156 738.337341,494.312653 
	C738.795654,493.533691 738.932373,493.294250 738.998474,493.014496 
	C739.421997,492.938080 739.845581,492.861664 740.884521,492.882324 
	C741.699585,492.974640 741.899292,492.969940 742.098938,492.965240 
	C745.764404,492.901093 749.429871,492.836914 753.542114,493.253815 
	C753.516235,495.129883 752.505676,496.595154 752.677063,497.905945 
	C753.103149,501.165894 753.096252,505.978546 755.065369,507.157501 
	C757.460632,508.591553 762.396423,508.018433 764.974060,506.358368 
	C768.370422,504.171082 768.546143,499.982635 765.829468,496.316071 
	C765.074829,495.297699 764.601562,494.070862 763.999207,492.939697 
	C764.753784,492.901428 765.508423,492.863159 766.669067,493.271393 
	C768.836914,495.128571 770.690186,497.739655 772.334595,497.614136 
	C773.997375,497.487244 775.453369,494.650330 777.000000,493.000549 
	C780.621582,493.000580 784.243164,493.000580 788.223938,493.000580 
	C788.303772,494.582672 788.437134,496.019470 788.439148,497.456451 
	C788.455750,509.280304 787.956787,521.132446 788.635437,532.917175 
	C789.030823,539.783813 786.358521,544.013550 781.417114,548.081787 
	C759.822449,565.860840 722.748596,566.538574 700.982788,548.998535 
	C684.693542,535.871826 679.556824,517.913879 680.143982,497.823822 
	C680.920898,471.240143 696.197632,449.409271 720.074219,441.886993 
	C744.318176,434.249023 766.336670,438.608826 785.624634,455.896637 
	C781.348267,459.691345 777.306030,463.278320 772.837036,467.243958 
	C767.105652,462.499207 759.339966,458.355286 750.285339,456.668457 
	C724.281921,451.824249 701.445984,468.618408 699.201416,494.965881 
	C698.646179,501.482635 699.040710,508.416565 700.676880,514.723389 
	C706.605835,537.578430 726.742859,545.515503 747.488220,543.599487 
	C750.448120,543.326172 753.434326,542.695374 756.265869,541.786194 
	C769.045471,537.682739 770.966003,534.981445 770.966003,521.807434 
	C770.966003,518.005371 770.965942,514.203247 770.965942,509.498047 
	C765.019043,509.498047 759.433533,509.498047 753.414429,509.011871 
	C748.077820,500.320343 744.055969,497.973053 741.613098,500.256439 
	C742.527222,503.743378 743.250916,506.503876 743.974609,509.264374 
z"/>
<path fill="#0372BD" opacity="1.000000" stroke="none" 
	d="
M365.989319,682.629700 
	C365.543640,682.669189 365.097931,682.708679 364.201294,682.302124 
	C361.173431,681.884460 358.596558,681.912720 356.019684,681.941040 
	C354.942413,681.919556 353.865143,681.898071 352.282990,681.414124 
	C349.619843,680.385193 347.491913,679.583191 345.297150,679.300659 
	C340.560822,678.691162 335.790161,678.348450 331.033569,677.896545 
	C330.566345,677.871826 330.099091,677.847107 329.265869,677.404114 
	C328.278992,676.951782 327.658142,676.917786 327.037292,676.883728 
	C308.759735,672.666687 291.677643,665.509338 275.230408,655.455872 
	C274.446838,654.801880 274.001587,654.650208 273.556335,654.498596 
	C273.556335,654.498596 273.601166,654.321594 273.695496,653.988647 
	C272.846344,646.661194 271.084900,645.039185 264.364136,645.001892 
	C262.875061,644.993652 261.385742,645.026245 259.896545,645.040039 
	C240.721542,631.053284 226.201736,613.007019 214.338974,592.668213 
	C211.940750,588.556396 209.811264,584.287781 206.745560,578.578735 
	C216.293762,578.578735 224.556793,578.368347 232.804276,578.636475 
	C241.466125,578.918091 246.858871,584.633606 251.913162,590.853210 
	C258.737122,599.250488 265.648346,607.581055 272.706299,615.781738 
	C275.412598,618.926331 278.626038,621.634399 281.623047,625.174805 
	C279.780426,629.846375 281.698273,632.615234 284.636871,635.169983 
	C288.002380,638.095825 291.529999,637.297668 295.149078,635.927063 
	C311.704407,647.237976 329.398773,656.105591 349.119507,660.335815 
	C356.718109,661.965759 364.474060,662.862305 372.696259,664.565674 
	C377.153381,665.033691 381.072540,665.029053 384.991730,665.024414 
	C386.389526,664.968384 387.787292,664.912292 389.888763,665.228210 
	C394.397552,665.173584 398.202698,664.746948 402.007812,664.320312 
	C403.078308,664.199829 404.148773,664.079407 405.848175,664.264038 
	C407.580414,665.003357 408.683746,665.437683 410.145294,666.013000 
	C405.349823,671.242859 400.036957,674.257019 393.792480,676.221497 
	C391.191742,677.039612 389.241608,679.925903 386.995667,681.871765 
	C386.549591,681.942993 386.103546,682.014160 385.023987,681.736145 
	C379.615417,681.394958 374.837494,681.314758 370.066956,681.466614 
	C368.696808,681.510254 367.347931,682.223511 365.989319,682.629700 
M265.491913,637.986877 
	C268.895660,641.391663 272.195343,644.912170 275.770874,648.125854 
	C276.755981,649.011230 278.933990,649.736816 279.934143,649.247314 
	C286.143005,646.208984 286.579102,638.746643 281.065674,634.648682 
	C276.830383,631.500732 273.731720,633.627625 270.827057,636.899597 
	C269.137543,635.544434 267.636200,634.340210 265.012268,632.235535 
	C265.012268,634.709045 265.012268,636.093872 265.491913,637.986877 
z"/>
<path fill="#32338C" opacity="1.000000" stroke="none" 
	d="
M341.312897,543.353882 
	C336.376251,550.291931 331.563599,556.877869 326.956604,563.604736 
	C324.453583,567.259521 321.092102,568.787659 316.814331,568.869019 
	C281.850220,569.533752 246.887177,570.260315 211.922058,570.867798 
	C204.601395,570.995056 202.153900,569.172119 199.893036,562.228882 
	C197.121994,553.718994 194.574570,545.136292 191.781723,536.104065 
	C244.106842,535.011780 295.842651,533.931824 348.719177,532.828064 
	C345.991730,536.706055 343.757141,539.883301 341.312897,543.353882 
z"/>
<path fill="#2173B8" opacity="1.000000" stroke="none" 
	d="
M571.027588,531.991821 
	C559.192993,511.348755 558.828918,490.061768 568.907166,468.938965 
	C578.598816,448.626221 596.028625,439.002838 617.958252,437.157867 
	C636.853699,435.568146 653.369995,441.117828 667.158875,454.521088 
	C663.129761,458.737549 659.258606,462.788757 655.087830,467.153473 
	C644.955566,457.881653 633.256653,454.048462 620.077393,455.015533 
	C611.461121,455.647736 603.482422,458.234863 596.543030,463.646271 
	C582.540283,474.565735 577.594543,495.071594 582.745117,513.806885 
	C582.948181,514.894104 583.377258,515.445984 583.806396,515.997925 
	C584.305115,517.056946 584.803833,518.116028 584.988220,519.554199 
	C583.239990,521.033997 581.724792,522.044861 580.388428,523.253418 
	C577.223022,526.116333 574.142456,529.073059 571.027588,531.991821 
z"/>
<path fill="#34358D" opacity="1.000000" stroke="none" 
	d="
M270.564880,578.223877 
	C281.018585,576.633911 288.291870,581.293274 294.428772,588.565002 
	C306.397400,602.746948 320.523071,614.166077 337.437744,621.983459 
	C360.537323,632.659241 384.816864,634.464294 409.714111,631.535156 
	C419.589630,630.373169 429.458832,629.157776 439.827057,629.044556 
	C435.982086,631.058594 432.256287,633.354187 428.272491,635.040039 
	C405.238373,644.787903 381.301575,645.364624 357.183289,640.855103 
	C322.812286,634.428528 293.574005,618.861572 271.862732,590.714661 
	C269.934845,588.215332 268.230804,585.541748 266.457458,582.925659 
	C265.914642,582.124878 265.487640,581.245605 264.738892,579.930115 
	C266.738678,579.327148 268.439636,578.814331 270.564880,578.223877 
z"/>
<path fill="#34358D" opacity="1.000000" stroke="none" 
	d="
M397.858490,370.865906 
	C354.843933,367.968079 319.834656,382.764374 292.198547,415.279205 
	C283.576660,425.423187 275.232544,427.515472 263.104034,423.099243 
	C279.523590,396.058838 303.164856,378.381775 332.546326,368.514282 
	C368.354401,356.488464 403.924927,354.905182 438.067780,375.111511 
	C424.825531,373.702942 411.583252,372.294373 397.858490,370.865906 
z"/>
<path fill="#2072B7" opacity="1.000000" stroke="none" 
	d="
M571.092529,532.328613 
	C574.142456,529.073059 577.223022,526.116333 580.388428,523.253418 
	C581.724792,522.044861 583.239990,521.033997 585.080811,519.894470 
	C597.883057,544.602417 634.061462,548.899414 655.728455,529.115540 
	C659.763855,533.274170 663.804443,537.438171 669.168884,542.966492 
	C668.113831,543.478149 666.544067,543.879333 665.443665,544.826050 
	C641.555664,565.377869 600.063904,564.141541 578.546509,542.059265 
	C575.781860,539.221985 573.606079,535.810791 571.092529,532.328613 
z"/>
<path fill="#0B75BD" opacity="1.000000" stroke="none" 
	d="
M387.432190,681.920776 
	C389.241608,679.925903 391.191742,677.039612 393.792480,676.221497 
	C400.036957,674.257019 405.349823,671.242859 410.145294,666.013000 
	C408.683746,665.437683 407.580414,665.003357 406.250275,664.316040 
	C446.015717,659.421448 480.156952,642.714478 508.384888,613.813599 
	C491.924469,642.638123 444.340759,676.882080 387.432190,681.920776 
z"/>
<path fill="#595959" opacity="1.000000" stroke="none" 
	d="
M28.834320,938.967529 
	C27.429564,939.798584 26.270102,940.360657 24.778095,941.083984 
	C26.874426,942.307007 28.747469,943.399780 30.619095,944.494995 
	C30.534599,950.436584 30.534599,950.436584 24.879150,951.703735 
	C29.580624,954.018250 31.172363,956.610229 29.125736,961.825989 
	C27.860296,965.050903 29.876015,969.528870 30.262201,973.459656 
	C30.363943,974.495239 30.246700,976.140869 29.608919,976.558960 
	C26.795485,978.403320 27.206608,980.017029 29.256802,982.139832 
	C29.936216,982.843323 29.911457,984.226868 30.481213,986.283386 
	C25.864000,984.766968 21.995924,983.581238 18.203899,982.188538 
	C17.312540,981.861145 16.101753,980.855286 16.075510,980.124268 
	C16.044765,979.267944 16.957314,978.023438 17.798113,977.561829 
	C19.721283,976.505737 21.849878,975.823730 24.001226,974.946594 
	C22.294706,972.448181 20.783503,970.235657 18.759468,967.272400 
	C18.222002,967.178589 16.658319,966.905701 15.094636,966.632812 
	C14.931311,966.205078 14.767985,965.777344 14.604660,965.349609 
	C16.822962,964.322144 19.041264,963.294678 21.631792,962.094788 
	C18.897842,957.784912 18.951525,954.035217 24.452824,951.236084 
	C21.428610,951.101196 18.404396,950.966248 14.470115,950.790710 
	C17.484953,947.419800 20.074730,944.524109 22.554180,941.751831 
	C18.794142,933.779541 19.035505,932.849670 25.441435,931.187500 
	C25.752773,933.087463 26.056978,934.943909 26.361183,936.800293 
	C26.640865,936.834045 26.920547,936.867798 27.200230,936.901550 
	C27.452423,935.473206 27.704617,934.044800 27.957010,932.615295 
	C31.347055,933.563171 31.347055,933.563171 28.834320,938.967529 
M22.316774,958.269958 
	C23.979555,958.453491 25.642336,958.637024 27.305115,958.820557 
	C27.141314,957.839783 26.977514,956.859009 26.813717,955.878235 
	C25.271111,956.436768 23.728504,956.995300 22.316774,958.269958 
M24.058458,963.259033 
	C24.960033,963.431641 25.861607,963.604248 26.763182,963.776855 
	C26.812021,963.398315 26.860859,963.019836 26.909697,962.641296 
	C26.181395,962.641296 25.453091,962.641296 24.058458,963.259033 
M25.437319,975.123230 
	C25.970226,974.813599 26.503134,974.503967 27.036041,974.194397 
	C26.749542,973.858398 26.463045,973.522461 26.176546,973.186523 
	C25.609705,973.845215 25.042862,974.503845 25.437319,975.123230 
z"/>
<path fill="#E3E3E3" opacity="1.000000" stroke="none" 
	d="
M23.035374,798.774963 
	C24.591871,800.210571 25.919088,802.168945 27.752558,802.973145 
	C31.572941,804.648743 33.513401,806.423584 32.594479,811.247925 
	C31.778223,815.533081 33.681080,820.396667 32.626381,824.559753 
	C31.456905,829.175964 29.951313,833.274841 32.792633,837.673889 
	C32.961502,837.935364 32.376751,838.983826 31.899265,839.313965 
	C28.877552,841.403687 30.317202,843.173035 31.777164,845.541748 
	C33.465458,848.280884 34.559994,851.536743 30.422598,853.962769 
	C29.919554,853.916504 29.697128,853.697815 29.764652,853.305969 
	C28.961990,850.665833 28.091806,848.417603 27.221619,846.169312 
	C24.751186,847.579285 22.280752,848.989258 19.894739,850.351074 
	C19.162064,849.422546 18.036642,847.996216 16.911232,846.569946 
	C17.295246,845.719910 17.495003,844.340332 18.101334,844.129395 
	C19.391146,843.680664 20.892286,843.839355 23.037754,843.743530 
	C24.856546,843.449280 26.481857,843.502686 26.926441,842.804382 
	C28.041676,841.052673 28.622662,838.960815 29.453550,836.917664 
	C25.581909,834.622437 25.580442,831.077881 30.824272,825.064392 
	C25.667377,825.064392 21.444532,825.064392 17.221691,825.064392 
	C18.092316,823.802185 18.962938,822.539917 20.382889,821.099609 
	C21.841183,821.284180 22.722090,821.834045 23.664234,821.975220 
	C26.808304,822.446350 29.631847,821.571533 29.775440,818.066284 
	C29.842278,816.434753 28.283291,813.772034 26.844671,813.238281 
	C23.539656,812.011719 22.259577,814.569885 21.761618,817.482727 
	C21.745232,817.578491 21.284761,817.598267 21.736481,817.499878 
	C19.945406,816.154175 18.532045,815.092224 17.118687,814.030273 
	C16.989717,813.417847 16.860744,812.805420 17.367889,812.013123 
	C18.612404,809.992859 19.220798,808.152527 19.898230,806.103333 
	C23.111797,807.524231 26.318983,808.942322 29.526169,810.360413 
	C29.814865,809.766479 30.103561,809.172546 30.392260,808.578613 
	C28.109037,807.422852 25.934654,805.888062 23.518772,805.194336 
	C19.181517,803.948853 18.258081,801.354431 19.629869,797.034302 
	C20.803896,797.634399 21.919628,798.204712 23.035374,798.774963 
z"/>
<path fill="#0B75BD" opacity="1.000000" stroke="none" 
	d="
M232.405365,521.041138 
	C228.977371,517.459534 225.852036,514.042114 223.007156,510.405334 
	C221.991882,509.107483 221.655838,507.278320 221.009766,505.691650 
	C222.702332,506.256989 224.395264,506.821198 226.086823,507.389587 
	C226.243927,507.442352 226.392166,507.521576 225.174805,506.986664 
	C229.980530,505.826233 233.635818,504.943604 237.522217,504.005157 
	C236.127106,500.601318 237.303864,496.706024 241.437790,494.611877 
	C243.033356,493.803558 246.383240,494.318146 247.721481,495.548584 
	C251.535110,499.055023 245.041046,500.325439 245.536469,504.209747 
	C247.542023,503.187378 249.259338,502.311951 250.976669,501.438538 
	C252.567459,506.649872 248.286530,509.595093 242.138962,508.468658 
	C240.360886,512.598633 238.723816,516.401123 237.045654,520.552979 
	C235.609268,520.974487 234.213959,521.046631 232.405365,521.041138 
z"/>
<path fill="#E3E3E3" opacity="1.000000" stroke="none" 
	d="
M20.159662,902.249023 
	C20.127121,900.743469 20.094595,899.237915 20.476212,897.328674 
	C23.682804,898.214233 26.675928,899.400940 28.881790,896.330566 
	C29.793165,895.062012 29.548290,892.962769 29.967642,890.393799 
	C27.609690,892.937256 26.298807,894.351257 24.987928,895.765320 
	C23.938454,894.315247 22.955912,892.807922 21.796358,891.451965 
	C21.472466,891.073303 20.626162,891.141235 20.019478,891.004272 
	C19.688940,890.580811 19.358418,890.157349 19.449577,889.358154 
	C23.208368,888.982483 26.545475,888.982483 29.882584,888.982483 
	C29.983257,888.459961 30.083933,887.937439 30.184608,887.414917 
	C29.072407,886.762573 27.960205,886.110229 27.128422,885.622375 
	C28.183971,884.023560 29.247808,882.412170 30.311644,880.800781 
	C29.965963,880.560242 29.620281,880.319641 29.274601,880.079102 
	C27.668825,881.354797 26.063051,882.630554 24.737831,883.683411 
	C22.880669,882.545593 21.396025,881.636047 19.911385,880.726501 
	C20.307386,879.833862 20.661312,878.191589 21.106005,878.166626 
	C24.812164,877.958618 28.535053,878.048584 32.410950,878.048584 
	C32.642868,879.404175 32.966080,880.356262 32.942726,881.299805 
	C32.665733,892.491882 32.302414,903.681824 32.064423,914.874573 
	C32.033604,916.323914 32.761341,917.778259 32.820129,919.243042 
	C32.929108,921.958252 33.800190,925.154968 29.416706,925.575562 
	C28.827291,922.657959 29.433489,918.768677 28.022263,917.790833 
	C22.798595,914.171082 22.672361,921.608765 19.107086,922.980347 
	C18.759573,921.825012 18.397512,920.956482 18.256098,920.053406 
	C18.124523,919.213196 18.227999,918.336304 18.227999,917.209656 
	C17.212568,917.569824 16.606035,917.784912 15.999499,918.000000 
	C16.169380,916.753601 16.339264,915.507263 17.159920,914.219116 
	C21.484085,916.943848 25.124905,914.337952 28.738016,913.925110 
	C29.301701,913.860779 29.631172,911.746460 30.146221,910.374207 
	C27.631153,911.051208 24.966455,912.475403 24.289904,911.826538 
	C21.554832,909.203552 19.468967,912.062561 17.138294,912.035706 
	C14.186488,908.356384 19.737640,909.310425 20.351963,907.307068 
	C23.437111,909.979187 26.449116,910.264221 28.592131,907.611267 
	C29.623274,906.334778 29.362719,901.981201 28.744402,901.769104 
	C26.457636,900.984619 23.777678,901.305664 21.246155,901.320740 
	C20.882168,901.322876 20.521748,901.924744 20.159662,902.249023 
z"/>
<path fill="#E3E3E3" opacity="1.000000" stroke="none" 
	d="
M16.905235,778.616699 
	C16.945257,777.221313 16.985289,775.825928 17.385921,774.320679 
	C22.026203,777.384583 23.547802,776.821716 25.596563,771.144104 
	C26.712784,772.506958 27.765009,773.791687 28.817232,775.076416 
	C29.315361,774.695984 29.813488,774.315552 30.311617,773.935059 
	C28.629482,771.915039 27.224625,769.539001 25.198383,767.960815 
	C22.360256,765.750244 19.595287,767.157227 17.204401,769.303772 
	C16.593853,764.975830 19.595329,764.316833 22.733688,764.055359 
	C27.614080,763.648865 32.792019,768.159241 32.890110,772.821472 
	C32.975849,776.896423 32.776669,780.983337 33.006310,785.047791 
	C33.265736,789.639648 32.885429,793.493408 26.689157,793.720947 
	C28.087086,794.344360 29.580891,794.815430 30.863443,795.622253 
	C33.743057,797.433838 33.501785,799.853577 30.202354,800.816406 
	C27.405638,798.652222 24.735237,797.202759 22.217625,795.524109 
	C21.303497,794.914612 20.754246,793.757874 20.038509,792.850830 
	C21.094872,792.374329 22.113831,791.632385 23.215448,791.477173 
	C25.444775,791.163147 27.718918,791.167358 29.974577,791.040344 
	C29.946306,790.363892 29.918036,789.687439 29.889765,789.010986 
	C25.609337,789.010986 21.328911,789.010986 17.048485,789.010986 
	C16.926737,787.776001 16.804989,786.540955 17.351650,785.130615 
	C19.588856,785.311157 21.157652,785.667053 22.217018,785.907349 
	C23.704447,783.922485 24.890743,782.339478 26.077034,780.756470 
	C26.874132,782.436462 27.671236,784.116516 28.620934,786.118164 
	C30.765503,783.395874 30.706703,780.642578 28.160879,778.838318 
	C23.255131,775.361450 22.724218,781.352600 20.510902,783.131409 
	C19.177965,781.462402 18.041605,780.039551 16.905235,778.616699 
z"/>
<path fill="#2173B8" opacity="1.000000" stroke="none" 
	d="
M763.552795,492.846527 
	C764.601562,494.070862 765.074829,495.297699 765.829468,496.316071 
	C768.546143,499.982635 768.370422,504.171082 764.974060,506.358368 
	C762.396423,508.018433 757.460632,508.591553 755.065369,507.157501 
	C753.096252,505.978546 753.103149,501.165894 752.677063,497.905945 
	C752.505676,496.595154 753.516235,495.129883 753.994568,493.340240 
	C757.035645,492.881531 760.071045,492.817444 763.552795,492.846527 
z"/>
<path fill="#34358D" opacity="1.000000" stroke="none" 
	d="
M269.334656,470.841003 
	C269.198639,463.843292 272.694000,460.983093 280.301086,461.523315 
	C283.196869,449.160797 283.295624,449.032928 286.856873,451.524078 
	C286.433319,454.318909 286.073212,456.694824 285.713135,459.070740 
	C288.492767,459.449677 291.272339,459.828613 294.814636,460.311493 
	C294.286285,463.229889 292.360077,465.267212 288.489594,464.952789 
	C285.000397,464.669342 283.490631,465.947205 283.983124,469.903748 
	C282.903290,470.473694 281.831024,470.589203 280.355103,470.238434 
	C278.302429,468.252258 276.653442,466.732330 275.004425,465.212433 
	C274.372650,467.033783 273.740906,468.855164 273.109131,470.676514 
	C271.964111,470.753448 270.819092,470.830414 269.334656,470.841003 
z"/>
<path fill="#595959" opacity="1.000000" stroke="none" 
	d="
M17.129728,825.438171 
	C21.444532,825.064392 25.667377,825.064392 30.824272,825.064392 
	C25.580442,831.077881 25.581909,834.622437 29.453550,836.917664 
	C28.622662,838.960815 28.041676,841.052673 26.926441,842.804382 
	C26.481857,843.502686 24.856546,843.449280 23.492672,843.640503 
	C21.335085,841.135193 16.540428,841.405212 17.550266,836.474548 
	C19.688906,836.140747 21.328772,836.295532 22.923368,836.093262 
	C23.732103,835.990723 24.459187,835.244385 25.223183,834.789062 
	C24.566755,834.078491 23.910330,833.367981 23.253901,832.657410 
	C20.936010,830.598816 16.735676,830.249634 17.129728,825.438171 
z"/>
<path fill="#595959" opacity="1.000000" stroke="none" 
	d="
M16.990522,789.377686 
	C21.328911,789.010986 25.609337,789.010986 29.889765,789.010986 
	C29.918036,789.687439 29.946306,790.363892 29.974577,791.040344 
	C27.718918,791.167358 25.444775,791.163147 23.215448,791.477173 
	C22.113831,791.632385 21.094872,792.374329 20.038509,792.850830 
	C20.754246,793.757874 21.303497,794.914612 22.217625,795.524109 
	C24.735237,797.202759 27.405638,798.652222 29.999310,800.560791 
	C27.903437,800.275635 25.823853,799.622070 23.389816,798.871704 
	C21.919628,798.204712 20.803896,797.634399 19.629869,797.034302 
	C18.258081,801.354431 19.181517,803.948853 23.518772,805.194336 
	C25.934654,805.888062 28.109037,807.422852 30.392260,808.578613 
	C30.103561,809.172546 29.814865,809.766479 29.526169,810.360413 
	C26.318983,808.942322 23.111797,807.524231 19.898230,806.103333 
	C19.220798,808.152527 18.612404,809.992859 17.625793,811.878296 
	C17.131006,806.260498 17.014439,800.597778 17.246849,794.386597 
	C17.479580,793.205383 17.363333,792.572449 17.247093,791.939575 
	C17.142252,791.207825 17.037407,790.476135 16.990522,789.377686 
z"/>
<path fill="#2173B8" opacity="1.000000" stroke="none" 
	d="
M265.630798,482.792297 
	C268.301636,487.323395 266.393311,490.709656 263.000336,493.291840 
	C261.701447,494.280365 259.543335,494.139832 257.776764,494.513763 
	C257.623444,494.069946 257.470123,493.626099 257.316833,493.182281 
	C259.336578,491.374695 261.356323,489.567108 263.376068,487.759521 
	C263.111877,487.212067 262.847687,486.664612 262.583496,486.117157 
	C260.679077,486.459686 258.665710,486.519501 256.892700,487.202942 
	C253.062531,488.679504 250.585037,487.511383 249.010620,483.528076 
	C254.419113,483.000427 259.837341,482.834259 265.630798,482.792297 
z"/>
<path fill="#E3E3E3" opacity="1.000000" stroke="none" 
	d="
M30.032402,854.024109 
	C33.414883,860.589783 32.474194,863.290222 26.354610,864.031128 
	C27.088970,863.225281 27.967289,862.988647 29.217218,862.651855 
	C27.975504,861.817017 27.075054,861.211670 25.929674,860.441589 
	C27.128468,859.987793 28.000973,859.657532 29.257477,859.181946 
	C25.268040,856.389160 21.559698,855.052124 17.255798,856.373779 
	C17.193947,855.479919 17.132095,854.586121 17.475910,853.305664 
	C19.582445,853.275818 21.283314,853.632629 22.898916,853.971558 
	C23.206793,853.225281 23.294638,852.896057 23.465557,852.617859 
	C24.260935,851.323120 25.079327,850.042542 25.889484,848.756897 
	C26.485392,850.037598 26.960634,851.397705 27.729198,852.564636 
	C28.101168,853.129456 29.023798,853.331543 29.697124,853.697815 
	C29.697128,853.697815 29.919554,853.916504 30.032402,854.024109 
z"/>
<path fill="#0B75BD" opacity="1.000000" stroke="none" 
	d="
M294.968018,635.642334 
	C291.529999,637.297668 288.002380,638.095825 284.636871,635.169983 
	C281.698273,632.615234 279.780426,629.846375 281.790405,625.464844 
	C286.224396,628.533508 290.505676,631.945618 294.968018,635.642334 
z"/>
<path fill="#595959" opacity="1.000000" stroke="none" 
	d="
M17.086233,814.378906 
	C18.532045,815.092224 19.945406,816.154175 21.736481,817.499878 
	C21.284761,817.598267 21.745232,817.578491 21.761618,817.482727 
	C22.259577,814.569885 23.539656,812.011719 26.844671,813.238281 
	C28.283291,813.772034 29.842278,816.434753 29.775440,818.066284 
	C29.631847,821.571533 26.808304,822.446350 23.664234,821.975220 
	C22.722090,821.834045 21.841183,821.284180 20.559139,820.797485 
	C19.141968,818.691406 18.097874,816.709534 17.086233,814.378906 
z"/>
<path fill="#595959" opacity="1.000000" stroke="none" 
	d="
M15.974365,918.413696 
	C16.606035,917.784912 17.212568,917.569824 18.227999,917.209656 
	C18.227999,918.336304 18.124523,919.213196 18.256098,920.053406 
	C18.397512,920.956482 18.759573,921.825012 19.107086,922.980347 
	C22.672361,921.608765 22.798595,914.171082 28.022263,917.790833 
	C29.433489,918.768677 28.827291,922.657959 29.024399,925.577820 
	C27.913013,924.450867 26.924351,922.956909 26.301342,922.015503 
	C23.962439,923.204773 21.293377,924.562012 18.624304,925.919189 
	C17.732603,923.555237 16.840916,921.191284 15.974365,918.413696 
z"/>
<path fill="#595959" opacity="1.000000" stroke="none" 
	d="
M17.147038,769.674805 
	C19.595287,767.157227 22.360256,765.750244 25.198383,767.960815 
	C27.224625,769.539001 28.629482,771.915039 30.311617,773.935059 
	C29.813488,774.315552 29.315361,774.695984 28.817232,775.076416 
	C27.765009,773.791687 26.712784,772.506958 25.596563,771.144104 
	C23.547802,776.821716 22.026203,777.384583 17.442219,773.997131 
	C17.121838,772.537598 17.105757,771.291748 17.147038,769.674805 
z"/>
<path fill="#595959" opacity="1.000000" stroke="none" 
	d="
M19.909678,881.105652 
	C21.396025,881.636047 22.880669,882.545593 24.737831,883.683411 
	C26.063051,882.630554 27.668825,881.354797 29.274601,880.079102 
	C29.620281,880.319641 29.965963,880.560242 30.311644,880.800781 
	C29.247808,882.412170 28.183971,884.023560 27.128422,885.622375 
	C27.960205,886.110229 29.072407,886.762573 30.184608,887.414917 
	C30.083933,887.937439 29.983257,888.459961 29.882584,888.982483 
	C26.545475,888.982483 23.208368,888.982483 19.418938,889.076660 
	C17.654871,888.397217 16.343128,887.623718 15.532283,886.482666 
	C18.223396,886.115112 20.413612,886.115112 23.742640,886.115112 
	C21.875237,884.548462 20.949980,883.772217 20.024712,882.995972 
	C19.985792,882.492249 19.946882,881.988525 19.909678,881.105652 
z"/>
<path fill="#595959" opacity="1.000000" stroke="none" 
	d="
M17.357094,856.736938 
	C21.559698,855.052124 25.268040,856.389160 29.257477,859.181946 
	C28.000973,859.657532 27.128468,859.987793 25.929674,860.441589 
	C27.075054,861.211670 27.975504,861.817017 29.217218,862.651855 
	C27.967289,862.988647 27.088970,863.225281 26.114645,863.809570 
	C25.584131,864.171692 25.149620,864.186096 24.388155,863.751770 
	C23.219303,863.446716 22.377405,863.590271 21.535505,863.733826 
	C19.072767,862.200867 17.438091,860.159058 17.357094,856.736938 
z"/>
<path fill="#2173B8" opacity="1.000000" stroke="none" 
	d="
M744.301331,509.402313 
	C743.250916,506.503876 742.527222,503.743378 741.613098,500.256439 
	C744.055969,497.973053 748.077820,500.320343 753.022583,508.888947 
	C751.608154,509.368774 750.152039,509.485352 748.275635,509.258606 
	C747.239685,509.051605 746.624023,509.187927 746.008301,509.324280 
	C745.548218,509.396301 745.088135,509.468262 744.301331,509.402313 
z"/>
<path fill="#0B75BD" opacity="1.000000" stroke="none" 
	d="
M260.062805,645.333496 
	C261.385742,645.026245 262.875061,644.993652 264.364136,645.001892 
	C271.084900,645.039185 272.846344,646.661194 273.637024,654.058777 
	C269.065826,651.516846 264.647461,648.571899 260.062805,645.333496 
z"/>
<path fill="#595959" opacity="1.000000" stroke="none" 
	d="
M33.351143,873.703979 
	C26.766293,873.888611 20.592194,873.888611 14.418094,873.888611 
	C14.375888,873.310669 14.333682,872.732727 14.291476,872.154785 
	C15.390001,871.904724 16.484625,871.460815 17.587732,871.438599 
	C22.076464,871.348267 26.573317,871.268005 31.053637,871.475830 
	C31.985983,871.519165 32.860649,872.805786 33.351143,873.703979 
z"/>
<path fill="#595959" opacity="1.000000" stroke="none" 
	d="
M29.764648,853.305969 
	C29.023798,853.331543 28.101168,853.129456 27.729198,852.564636 
	C26.960634,851.397705 26.485392,850.037598 25.889484,848.756897 
	C25.079327,850.042542 24.260935,851.323120 23.465557,852.617859 
	C23.294638,852.896057 23.206793,853.225281 22.898916,853.971558 
	C21.283314,853.632629 19.582445,853.275818 17.499418,852.857422 
	C17.035704,851.023193 16.954149,849.250549 16.891907,847.023926 
	C18.036642,847.996216 19.162064,849.422546 19.894739,850.351074 
	C22.280752,848.989258 24.751186,847.579285 27.221619,846.169312 
	C28.091806,848.417603 28.961990,850.665833 29.764648,853.305969 
z"/>
<path fill="#595959" opacity="1.000000" stroke="none" 
	d="
M16.885904,779.074219 
	C18.041605,780.039551 19.177965,781.462402 20.510902,783.131409 
	C22.724218,781.352600 23.255131,775.361450 28.160879,778.838318 
	C30.706703,780.642578 30.765503,783.395874 28.620934,786.118164 
	C27.671236,784.116516 26.874132,782.436462 26.077034,780.756470 
	C24.890743,782.339478 23.704447,783.922485 22.217018,785.907349 
	C21.157652,785.667053 19.588856,785.311157 17.644604,784.937012 
	C17.134954,783.123047 17.000759,781.327454 16.885904,779.074219 
z"/>
<path fill="#595959" opacity="1.000000" stroke="none" 
	d="
M20.098949,902.638977 
	C20.521748,901.924744 20.882168,901.322876 21.246155,901.320740 
	C23.777678,901.305664 26.457636,900.984619 28.744402,901.769104 
	C29.362719,901.981201 29.623274,906.334778 28.592131,907.611267 
	C26.449116,910.264221 23.437111,909.979187 20.675827,907.147949 
	C20.276896,905.627747 20.157560,904.328369 20.098949,902.638977 
M24.641800,906.849976 
	C25.594448,905.754822 26.547098,904.659729 27.499708,903.564575 
	C26.195694,903.242065 24.566952,902.267883 23.651028,902.724243 
	C21.294943,903.898315 21.880577,905.488220 24.641800,906.849976 
z"/>
<path fill="#595959" opacity="1.000000" stroke="none" 
	d="
M17.086180,912.357483 
	C19.468967,912.062561 21.554832,909.203552 24.289904,911.826538 
	C24.966455,912.475403 27.631153,911.051208 30.146221,910.374207 
	C29.631172,911.746460 29.301701,913.860779 28.738016,913.925110 
	C25.124905,914.337952 21.484085,916.943848 17.463173,914.078491 
	C17.088455,913.546265 17.061260,913.112732 17.086180,912.357483 
z"/>
<path fill="#595959" opacity="1.000000" stroke="none" 
	d="
M19.972504,891.419067 
	C20.626162,891.141235 21.472466,891.073303 21.796358,891.451965 
	C22.955912,892.807922 23.938454,894.315247 24.987928,895.765320 
	C26.298807,894.351257 27.609690,892.937256 29.967642,890.393799 
	C29.548290,892.962769 29.793165,895.062012 28.881790,896.330566 
	C26.675928,899.400940 23.682804,898.214233 20.493752,896.876709 
	C20.039934,895.163574 19.982723,893.498718 19.972504,891.419067 
z"/>
<path fill="#0B75BD" opacity="1.000000" stroke="none" 
	d="
M331.368103,678.070251 
	C335.790161,678.348450 340.560822,678.691162 345.297150,679.300659 
	C347.491913,679.583191 349.619843,680.385193 351.893250,681.302002 
	C345.239777,680.516235 338.471222,679.380127 331.368103,678.070251 
z"/>
<path fill="#2173B8" opacity="1.000000" stroke="none" 
	d="
M776.552612,492.912476 
	C775.453369,494.650330 773.997375,497.487244 772.334595,497.614136 
	C770.690186,497.739655 768.836914,495.128571 767.037598,493.364319 
	C770.035095,492.948669 773.070190,492.886536 776.552612,492.912476 
z"/>
<path fill="#0B75BD" opacity="1.000000" stroke="none" 
	d="
M366.448608,682.728882 
	C367.347931,682.223511 368.696808,681.510254 370.066956,681.466614 
	C374.837494,681.314758 379.615417,681.394958 384.688171,681.674377 
	C378.959808,682.250549 372.933838,682.539307 366.448608,682.728882 
z"/>
<path fill="#31328C" opacity="1.000000" stroke="none" 
	d="
M273.530029,470.758179 
	C273.740906,468.855164 274.372650,467.033783 275.004425,465.212433 
	C276.653442,466.732330 278.302429,468.252258 279.953033,470.173157 
	C277.953400,470.662689 275.952179,470.751282 273.530029,470.758179 
z"/>
<path fill="#E3E3E3" opacity="1.000000" stroke="none" 
	d="
M22.767931,832.734131 
	C23.910330,833.367981 24.566755,834.078491 25.223183,834.789062 
	C24.459187,835.244385 23.732103,835.990723 22.923368,836.093262 
	C21.328772,836.295532 19.688906,836.140747 17.637615,836.105835 
	C17.598358,835.094849 17.730778,833.612976 18.440619,833.245056 
	C19.509047,832.691284 20.981358,832.916687 22.767931,832.734131 
z"/>
<path fill="#0B75BD" opacity="1.000000" stroke="none" 
	d="
M401.557373,664.257080 
	C398.202698,664.746948 394.397552,665.173584 390.301331,665.312500 
	C393.709137,664.747803 397.408020,664.470886 401.557373,664.257080 
z"/>
<path fill="#0B75BD" opacity="1.000000" stroke="none" 
	d="
M384.610413,664.908447 
	C381.072540,665.029053 377.153381,665.033691 373.112976,664.673157 
	C376.737549,664.469482 380.483307,664.631042 384.610413,664.908447 
z"/>
<path fill="#E3E3E3" opacity="1.000000" stroke="none" 
	d="
M19.628124,883.001038 
	C20.949980,883.772217 21.875237,884.548462 23.742640,886.115112 
	C20.413612,886.115112 18.223396,886.115112 15.618553,886.095398 
	C14.367449,883.295593 14.540998,883.163330 19.628124,883.001038 
z"/>
<path fill="#0B75BD" opacity="1.000000" stroke="none" 
	d="
M356.384491,682.069946 
	C358.596558,681.912720 361.173431,681.884460 363.881195,682.190796 
	C361.591156,682.416626 359.170227,682.307739 356.384491,682.069946 
z"/>
<path fill="#E3E3E3" opacity="1.000000" stroke="none" 
	d="
M16.984993,792.061646 
	C17.363333,792.572449 17.479580,793.205383 17.314747,793.923218 
	C16.930077,793.400024 16.826488,792.791870 16.984993,792.061646 
z"/>
<path fill="#34358D" opacity="1.000000" stroke="none" 
	d="
M260.330597,470.971497 
	C260.312775,470.397461 260.626343,469.901062 260.939880,469.404663 
	C261.264221,469.699249 261.588531,469.993866 261.956848,470.573212 
	C261.554596,470.921661 261.108276,470.985382 260.330597,470.971497 
z"/>
<path fill="#2072B7" opacity="1.000000" stroke="none" 
	d="
M746.326294,509.472260 
	C746.624023,509.187927 747.239685,509.051605 747.923218,509.133423 
	C747.542114,509.441132 747.093140,509.530701 746.326294,509.472260 
z"/>
<path fill="#2072B7" opacity="1.000000" stroke="none" 
	d="
M583.807739,515.718018 
	C583.377258,515.445984 582.948181,514.894104 582.736694,514.180176 
	C583.239319,514.491455 583.524231,514.964783 583.807739,515.718018 
z"/>
<path fill="#E3E3E3" opacity="1.000000" stroke="none" 
	d="
M21.958359,863.803284 
	C22.377405,863.590271 23.219303,863.446716 24.076326,863.629150 
	C23.521372,863.927673 22.951290,863.900208 21.958359,863.803284 
z"/>
<path fill="#0B75BD" opacity="1.000000" stroke="none" 
	d="
M327.259552,677.028809 
	C327.658142,676.917786 328.278992,676.951782 328.958069,677.230713 
	C328.504822,677.375000 327.993317,677.274414 327.259552,677.028809 
z"/>
<path fill="#0B75BD" opacity="1.000000" stroke="none" 
	d="
M273.675171,654.693359 
	C274.001587,654.650208 274.446838,654.801880 274.958527,655.216370 
	C274.614655,655.282227 274.204346,655.085205 273.675171,654.693359 
z"/>
<path fill="#2173B8" opacity="1.000000" stroke="none" 
	d="
M738.739014,493.025879 
	C738.932373,493.294250 738.795654,493.533691 738.414734,493.849182 
	C738.320557,493.656036 738.400085,493.346649 738.739014,493.025879 
z"/>
<path fill="#2173B8" opacity="1.000000" stroke="none" 
	d="
M741.965454,492.862732 
	C741.899292,492.969940 741.699585,492.974640 741.200073,492.972076 
	C741.210754,492.896576 741.521362,492.828369 741.965454,492.862732 
z"/>
<path fill="#2173B8" opacity="1.000000" stroke="none" 
	d="
M281.710327,482.372650 
	C281.929993,482.456390 281.638702,482.735992 281.638702,482.735992 
	C281.638702,482.735992 281.241516,482.704956 281.153076,482.596313 
	C281.064636,482.487701 281.490692,482.288910 281.710327,482.372650 
z"/>
<path fill="#34358D" opacity="1.000000" stroke="none" 
	d="
M306.031921,448.307343 
	C305.292969,454.574951 300.821228,450.838593 297.981567,451.239105 
	C298.153198,453.410889 298.314667,455.454163 298.445038,457.104095 
	C293.574860,452.888245 289.053833,449.093048 284.715759,445.099152 
	C284.018402,444.457092 284.137421,442.928345 283.879059,441.809509 
	C285.185638,441.979248 286.835480,441.710205 287.728333,442.408752 
	C289.669525,443.927460 291.224457,445.939880 293.275696,448.108246 
	C293.992767,444.832428 294.494171,442.541718 294.995605,440.251007 
	C298.431366,447.839050 298.431366,447.839050 306.031921,448.307343 
z"/>
<path fill="#0B75BD" opacity="1.000000" stroke="none" 
	d="
M265.252075,637.732788 
	C265.012268,636.093872 265.012268,634.709045 265.012268,632.235535 
	C267.636200,634.340210 269.137543,635.544434 270.827057,636.899597 
	C273.731720,633.627625 276.830383,631.500732 281.065674,634.648682 
	C286.579102,638.746643 286.143005,646.208984 279.934143,649.247314 
	C278.933990,649.736816 276.755981,649.011230 275.770874,648.125854 
	C272.195343,644.912170 268.895660,641.391663 265.252075,637.732788 
z"/>
<path fill="#E3E3E3" opacity="1.000000" stroke="none" 
	d="
M22.251335,957.911865 
	C23.728504,956.995300 25.271111,956.436768 26.813715,955.878235 
	C26.977514,956.859009 27.141314,957.839783 27.305115,958.820557 
	C25.642336,958.637024 23.979555,958.453491 22.251335,957.911865 
z"/>
<path fill="#FEFEFE" opacity="1.000000" stroke="none" 
	d="
M24.391623,962.950195 
	C25.453091,962.641296 26.181395,962.641296 26.909697,962.641296 
	C26.860859,963.019836 26.812021,963.398315 26.763182,963.776855 
	C25.861607,963.604248 24.960033,963.431641 24.391623,962.950195 
z"/>
<path fill="#FEFEFE" opacity="1.000000" stroke="none" 
	d="
M24.956669,975.142883 
	C25.042862,974.503845 25.609705,973.845215 26.176546,973.186523 
	C26.463045,973.522461 26.749542,973.858398 27.036041,974.194397 
	C26.503134,974.503967 25.970226,974.813599 24.956669,975.142883 
z"/>
<path fill="#E3E3E3" opacity="1.000000" stroke="none" 
	d="
M24.284817,906.771423 
	C21.880577,905.488220 21.294943,903.898315 23.651028,902.724243 
	C24.566952,902.267883 26.195694,903.242065 27.499727,903.564575 
	C26.547098,904.659729 25.594448,905.754822 24.284817,906.771423 
z"/>
</svg>